<svg width="39" height="40" viewBox="0 0 39 40" fill="none" xmlns="http://www.w3.org/2000/svg">
<path d="M38.86 20.3709C38.86 18.7458 38.7281 17.5599 38.4427 16.3301H19.8855V23.665H30.7782C30.5586 25.4879 29.3727 28.233 26.7373 30.0777L26.7004 30.3232L32.5678 34.8687L32.9744 34.9092C36.7077 31.4613 38.86 26.3882 38.86 20.3709Z" fill="#4285F4"/>
<path d="M19.8861 39.6968C25.2226 39.6968 29.7026 37.9398 32.9749 34.9093L26.7379 30.0777C25.0689 31.2416 22.8288 32.0542 19.8861 32.0542C14.6594 32.0542 10.2232 28.6064 8.64188 23.8408L8.41009 23.8605L2.30903 28.5822L2.22925 28.804C5.47947 35.2605 12.1557 39.6968 19.8861 39.6968Z" fill="#34A853"/>
<path d="M8.64171 23.841C8.22445 22.6112 7.98297 21.2934 7.98297 19.9319C7.98297 18.5702 8.22445 17.2526 8.61975 16.0228L8.6087 15.7609L2.43119 10.9634L2.22907 11.0595C0.8895 13.7388 0.12085 16.7476 0.12085 19.9319C0.12085 23.1163 0.8895 26.1249 2.22907 28.8042L8.64171 23.841Z" fill="#FBBC05"/>
<path d="M19.8861 7.80919C23.5975 7.80919 26.101 9.41235 27.5285 10.7521L33.1067 5.30567C29.6808 2.1213 25.2226 0.166748 19.8861 0.166748C12.1557 0.166748 5.47947 4.60287 2.22925 11.0594L8.61993 16.0227C10.2232 11.2571 14.6594 7.80919 19.8861 7.80919Z" fill="#EB4335"/>
</svg>
